<svg version="1.1" xmlns="http://www.w3.org/2000/svg" width="200" height="200" viewBox="0 0 800 800">
  <!-- Dark background for favicon use -->
  <rect width="800" height="800" rx="160" fill="#0a0a0f"/>
  <defs>
    <filter id="brand" color-interpolation-filters="sRGB" x="0%" y="0%" width="100%" height="100%">
      <feColorMatrix type="saturate" values="0" result="gray"/>
      <feComponentTransfer in="gray">
        <feFuncR type="linear" slope="0.22" intercept="0.02"/>
        <feFuncG type="linear" slope="0.74" intercept="0.03"/>
        <feFuncB type="linear" slope="0.97" intercept="0.10"/>
      </feComponentTransfer>
    </filter>
  </defs>
  <g filter="url(#brand)">
    <!-- Outer dark envelope -->
    <path d="m687.5 218.75 1.934 0.941C708.203 228.891 724.789 241.027 739.844 255.469l1.95 1.852c4.023 3.912 7.632 8.07 11.096 12.482a351.563 351.563 0 0 0 2.164 2.719C762.041 281.22 767.936 290.301 773.438 300l0.977 1.683c5.577 9.651 9.421 19.844 13.086 30.348l0.998 2.823c14.891 45.149 10.829 97.553 -10.47 139.951a287.5 287.5 0 0 1 -2.281 4.277 171.094 171.094 0 0 0 -2.22 4.305c-6.921 13.641 -16.234 26.255 -26.58 37.494a203.906 203.906 0 0 0 -4.465 5.047c-4.444 5.073 -9.191 9.444 -14.453 13.67a228.906 228.906 0 0 0 -4.297 3.546c-24.029 20.273 -54.092 33.49 -84.716 39.816l-1.757 0.367c-12.206 2.392 -24.313 2.926 -36.72 2.904l-2.381 0.001c-15.472 -0.02 -30.28 -1.222 -45.269 -5.31 -2.091 -0.527 -4.218 -0.452 -4.218 -0.452 -2.432 -0.001 -3.633 -1.092 -5.701 -2.345a110.938 110.938 0 0 0 -6.103 -1.513c-4.623 -1.071 -8.48 -2.413 -12.647 -4.737a53.906 53.906 0 0 0 -3.125 -0.781v-1.563l-2.051 -0.684L511.719 566.406v-1.563l-2.099 -0.634C507.031 563.281 505.176 562.159 505.176 562.159c-1.766 -1.052 -3.253 -1.681 -5.176 -2.344 -2.816 -1.006 -4.754 -2.385 -7.031 -4.346l-1.758 -0.879C489.844 553.906 489.063 552.344 489.063 552.344l-2.344 -0.781v-1.563l-1.611 -0.488c-2.573 -1.205 -4.298 -2.71 -6.4 -4.59 -1.452 -1.299 -3.61 -2.637 -3.61 -2.637 -8.359 -5.685 -10.254 -9.473 -10.254 -9.473l-2.344 -0.781c-1.287 -1.306 -2.637 -2.93 -2.637 -2.93 -1.52 -1.819 -3.048 -3.535 -4.73 -5.209 -6.275 -6.305 -11.62 -13.598 -16.852 -20.767l-1.599 -2.161c-2.421 -3.341 -4.465 -6.255 -5.432 -10.339h-1.563l-1.175 -2.521 -1.608 -3.436 -0.859 -1.837c-1.308 -2.784 -2.624 -5.556 -4.048 -8.282 -22.209 -42.6 -24.323 -94.495 -10.257 -139.923 4.041 -12.575 7.125 -18.479 7.125 -18.479 0.784 -1.534 1.37 -3.095 1.936 -4.72C427.905 293.256 440.594 275.814 453.906 261.719a500.781 500.781 0 0 0 2.539 -2.978c6.588 -7.534 13.81 -14.284 21.68 -20.459l1.969 -1.627c4.588 -3.78 9.373 -6.988 14.438 -10.092l2.28 -1.455C513.645 214.46 530.829 207.578 550 202.344l2.966 -0.813C596.43 190.612 647.845 199.091 687.5 218.75z" fill="#010100"/>
    <!-- Main light symbol -->
    <path d="M599.82 231.57c2.886 0.763 4.042 1.88 5.648 4.367 0.478 3.107 0.298 5.982 -0.562 9.002 -0.42 1.959 0.714 3.504 0.714 3.504l1.508 1.654c3.23 3.778 6.019 7.74 8.789 11.866a263.281 263.281 0 0 0 11.023 15.158c2.686 3.464 5.177 7.066 7.692 10.656a980.469 980.469 0 0 0 8.677 12.173l1.27 1.755 2.559 3.531q1.992 2.752 3.979 5.505l1.331 1.845 2.589 3.59a678.125 678.125 0 0 0 5.583 7.654l1.733 2.341 1.48 1.977C664.844 329.688 664.844 331.25 664.844 331.25l1.352 -0.76c2.921 -1.322 5.666 -1.33 8.805 -0.802 3.139 1.54 5.098 3.349 7.031 6.25v2.344q6.079 -0.509 12.159 -1.025l1.854 -0.157c6.723 -0.57 13.442 -1.158 20.155 -1.839l1.629 -0.164q3.791 -0.382 7.578 -0.787c6.397 -0.654 12.698 -0.83 19.126 -0.715l0.263 -2.203c0.519 -2.484 2.57 -4.73 2.57 -4.73 3.105 -1.955 4.503 -2.239 8.105 -1.66 4.327 2.404 5.469 4.688 5.469 4.688 0.271 4.135 0.402 6.823 -2.344 10.156 -2.68 2.009 -5.344 1.955 -8.594 1.563 -2.406 -1.475 -4.262 -3.48 -6.25 -5.469 -1.956 0 -3.805 0.098 -5.746 0.277l-1.795 0.145c-1.963 0.161 -3.925 0.333 -5.887 0.505q-2.039 0.169 -4.078 0.336 -4.277 0.352 -8.555 0.713c-6.5 0.545 -13.005 1.036 -19.508 1.53q-4.888 0.373 -9.776 0.75l-3.28 0.252L682.813 340.625l-0.311 2.188c-0.586 3.116 -1.551 4.766 -3.595 7.187 -4.044 2.299 -7.944 2.825 -12.5 3.125v-2.344l-1.855 -0.537c-2.566 -1.283 -2.705 -2.305 -3.613 -4.932 -11.103 3.074 -22.07 6.592 -22.07 6.592 -5.383 1.84 -10.831 3.398 -16.309 4.931l-2.586 0.724c-3.52 0.977 -7.006 1.916 -10.598 2.596l0.245 2.344c0 3.814 -1.778 6.496 -4.151 9.375 -2.691 2.1 -3.547 2.344 -7.031 2.344l0.367 1.334c0.78 3.375 0.892 6.839 1.146 10.287l0.202 2.698c0.78 11.112 1.206 22.242 1.646 33.37 0.378 9.467 1.151 18.909 1.151 18.909 0.423 5.178 0.477 10.387 0.616 15.58l0.102 3.609q0.124 4.372 0.24 8.745l1.848 -0.047c2.345 0.053 3.375 0.549 5.33 1.805l1.596 0.989c1.552 1.301 2.099 2.47 2.945 4.284 6.934 -1.056 13.734 -2.486 20.557 -4.102l3.115 -0.73a622.656 622.656 0 0 0 18.223 -4.592c7.386 -1.975 14.82 -3.603 22.302 -5.17 6.658 -1.402 13.275 -2.934 19.885 -4.547l2.819 -0.687 5.599 -1.364q7.039 -1.711 14.092 -3.369l2.552 -0.614c3.784 -0.884 7.251 -1.664 11.169 -1.388l-0.109 -1.455c-0.233 -5.199 1.574 -7.187 1.574 -7.187C739.063 439.844 740.625 439.844 740.625 439.844v-1.563c4.448 -0.355 6.72 0.248 10.156 3.125 1.659 2.091 1.563 3.096 1.465 5.811 -0.741 3.016 -1.664 4.479 -3.809 6.689 -2.684 1.342 -5.659 1.193 -8.594 0.781a141.406 141.406 0 0 1 -3.125 -3.125c-2.036 0.043 -3.513 0.297 -5.469 0.781l-2.337 0.531q-2.516 0.573 -5.027 1.175a199.219 199.219 0 0 1 -6.418 1.348c-4.67 0.924 -9.281 2.059 -13.904 3.195 -13.466 3.28 -26.969 6.403 -40.47 9.531a6992.188 6992.188 0 0 0 -16.048 3.742 6248.438 6248.438 0 0 1 -15.744 3.664q-3.003 0.692 -6.009 1.373l-1.684 0.388c-2.502 0.56 -4.616 0.832 -7.203 0.832l0.195 2.441c-0.234 3.642 -0.905 4.998 -3.32 7.715 -3.708 2.598 -7.155 3.802 -11.719 3.125 -2.49 -1.465 -4.688 -3.125 -4.688 -3.125 -1.4 -1.07 -3.125 -1.563 -3.125 -1.563 -2.11 0.562 -4.321 1.712 -4.321 1.712l-2.619 1.245 -2.826 1.389q-1.472 0.706 -2.946 1.409a1494.531 1494.531 0 0 0 -6.123 2.942c-4.648 2.238 -9.34 4.38 -14.026 6.537a1485.156 1485.156 0 0 0 -24.977 11.866C522.52 520.313 520.313 520.313 520.313 520.313l0.147 2.491c-0.188 3.818 -1.255 5.558 -3.809 8.301 -2.654 1.362 -5.174 1.459 -8.057 0.927 -2.195 -1.402 -3.523 -2.359 -4.688 -4.688 -0.436 -3.64 -0.478 -6.25 1.465 -9.423C507.031 516.406 508.594 516.406 508.594 516.406a312.5 312.5 0 0 0 -3.547 -27.522c-0.777 -4.509 -1.431 -8.99 -1.873 -13.543 -0.677 -6.92 -1.848 -13.752 -2.996 -20.606a373.438 373.438 0 0 1 -3.311 -25.259c-0.344 -3.442 -0.685 -6.773 -1.587 -10.119 -0.821 -3.241 -1.088 -6.266 -1.236 -9.591l-0.091 -1.721A637.5 637.5 0 0 1 493.75 403.906l-2.548 0.131c-3.683 -0.166 -4.711 -1.091 -7.26 -3.537 -2.252 -2.556 -2.637 -4.574 -2.936 -7.923 0.263 -2.934 1.066 -4.193 2.588 -6.641 -0.255 -3.182 -2.312 -5.483 -4.15 -7.959l-2.148 -2.952 -1.141 -1.563c-1.928 -2.657 -3.809 -5.348 -5.695 -8.035a1267.188 1267.188 0 0 0 -11.58 -16.162l-1.213 -1.67 -1.153 -1.577c-0.965 -1.378 -1.807 -2.787 -2.658 -4.238 -1.302 -2.122 -3.388 -2.261 -3.388 -2.261l-1.98 0.272c-3.702 0.25 -6.348 -1.855 -6.348 -1.855L440.625 335.938l-0.781 -0.781c-0.57 -3.073 -0.74 -5.865 0.973 -8.566 1.955 -1.919 3.552 -3.008 6.287 -3.427 2.588 0.113 4.473 0.47 6.555 2.06 2.156 2.388 2.591 3.555 2.591 6.809l2.341 0.302c3.184 0.455 6.297 1.164 9.427 1.895 5.477 1.255 10.969 2.307 16.504 3.272a174.219 174.219 0 0 1 17.508 4.004c3.509 0.902 7.03 1.412 10.617 1.905a36.328 36.328 0 0 1 5.322 1.22c2.365 0.69 3.82 1.045 6.25 0.684 1.613 -1.709 2.933 -4.044 2.933 -4.044l1.63 -2.605 0.841 -1.37c1.352 -2.166 2.797 -4.264 4.238 -6.371l1.761 -2.595 3.784 -5.57L545.313 314.063l0.898 -1.32a30884.375 30884.375 0 0 1 21.07 -30.968 1605.469 1605.469 0 0 0 9.338 -13.891c2.253 -3.373 4.537 -6.723 6.83 -10.07l1.323 -1.938 1.28 -1.871 1.131 -1.654a64.063 64.063 0 0 1 2.423 -3.227c1.218 -1.406 0.825 -3.176 0.825 -3.176L589.844 243.75c-1.277 -6.201 0.586 -9.326 0.586 -9.326 3.357 -3.078 5.044 -3.484 9.391 -2.854z" fill="#E7ECF2"/>
    <!-- Gray outer ring -->
    <path d="M586.291 192.824c2.007 -0.002 4.014 -0.016 6.021 -0.031q1.915 -0.004 3.83 -0.004l1.818 -0.017c4.205 0.018 5.946 1.759 5.946 1.759 -0.419 2.763 -1.563 3.906 -1.563 3.906 -1.917 0.106 -3.816 0.165 -5.734 0.192l-3.62 0.074 -1.92 0.036C548.748 199.591 510.234 212.605 477.344 239.844c-0.406 0.336 -0.814 0.67 -1.233 1.016C465.938 249.277 456.525 258.283 448.438 268.75q-1.205 1.523 -2.411 3.045c-5.719 7.283 -10.875 14.75 -15.558 22.736l-0.953 1.622a583.594 583.594 0 0 0 -2.807 4.872l-0.826 1.442c-21.945 39.199 -28.663 90.961 -17.12 134.455 4.797 16.789 10.996 32.769 19.02 48.276C429.688 488.902 429.688 490.625 429.688 490.625h1.563l0.695 1.468c3.308 6.529 7.634 11.901 12.281 17.517 1.428 1.746 2.797 3.535 4.162 5.331 1.943 2.511 4.023 4.713 6.299 6.934a400.781 400.781 0 0 1 3.711 4.004l1.844 2.008C461.719 529.688 462.5 532.031 462.5 532.031l1.367 0.293c2.617 0.727 3.795 2.44 5.664 4.395 2.988 2.762 6.018 5.362 9.375 7.666l2.344 1.709v1.563l1.855 0.732C485.156 549.219 486.719 550 486.719 550v1.563l1.513 0.293L489.844 552.344l0.781 1.563c1.336 0.797 2.677 1.589 4.041 2.337 1.148 0.633 2.27 1.313 3.381 2.008 1.922 1.105 3.88 1.973 5.927 2.82 2.639 1.141 5.183 2.469 7.745 3.772v1.563l2.051 0.244c2.767 0.564 4.858 1.531 7.324 2.881v1.563l2.002 0.244c2.443 0.489 4.395 1.284 6.659 2.281 3.361 1.348 6.951 2.04 10.463 2.895C542.969 577.344 544.842 578.564 544.842 578.564c2.458 1.359 4.406 1.49 7.172 1.719 3.788 0.372 7.493 1.293 11.208 2.102 12.168 2.545 24.045 3.063 36.436 3.016l2.414 -0.004c11.453 -0.034 22.606 -0.298 33.866 -2.584l2.116 -0.406c34.358 -6.705 67.255 -22.68 93.029 -46.448 1.537 -1.406 3.109 -2.741 4.709 -4.074C758.573 511.893 775 483.66 785.156 455.469l1.135 -3.021c13.553 -37.828 13.98 -82.506 0.427 -120.416l-0.705 -2.035C778.491 308.452 767.773 288.64 753.125 271.094l-1.123 -1.363C743.872 259.879 735.168 250.747 725 242.969l-1.311 -1.006C710.843 232.164 697.206 224.494 682.813 217.188c2.344 -0.781 4.167 -0.098 4.167 -0.098l2.156 1.105 2.417 1.238 2.587 1.368 2.656 1.396c7.998 4.284 15.453 9.119 22.734 14.522l1.527 1.129c6.933 5.173 13.343 10.839 19.566 16.84l1.521 1.457C749.315 263.039 755.838 270.102 761.719 278.125l1.005 1.348c13.669 18.338 27 41.463 31.453 64.098 0.403 1.986 0.914 3.931 1.428 5.892 1.112 4.402 2.038 8.831 2.93 13.281l0.404 2.008c1.223 6.187 1.969 12.145 2.001 18.452l0.016 2.142q0.02 3.421 0.02 6.842l0.002 2.355c-0.013 11.366 -0.361 22.398 -2.541 33.582l-0.381 2.136C792.984 458.48 781.028 485.518 764.063 508.594l-1.844 2.521C757.516 517.441 752.344 523.236 746.875 528.906l-1.461 1.525c-6.894 7.167 -13.955 13.689 -21.977 19.569l-1.348 1.005C715.259 556.097 708.177 560.621 700.781 564.844l-2.686 1.553C689.215 571.403 679.766 575.133 670.313 578.906l-1.583 0.651C642.654 590.256 613.708 591.443 585.938 590.625l-2.59 -0.066c-12.254 -0.41 -24.148 -3.377 -36.03 -6.205l-1.561 -0.363C542.273 583.143 539.195 581.922 535.938 580.469a190.625 190.625 0 0 0 -5.078 -1.514c-3.325 -0.997 -6.112 -2.041 -9.023 -3.897 -2.959 -1.63 -6.183 -2.681 -9.345 -3.848 -1.895 -0.728 -3.669 -1.509 -5.459 -2.459v-1.563l-2.979 -0.83C499.336 564.773 495.509 562.142 491.406 559.375q-1.465 -0.953 -2.933 -1.902c-4.852 -3.154 -9.542 -6.287 -13.797 -10.235 -1.137 -1.05 -2.357 -2.006 -3.583 -2.952L469.531 542.969v-1.563l-1.377 -0.625c-5.005 -2.683 -9.816 -7.55 -13.467 -11.875v-1.563l-3.125 -1.563v-1.563l-3.125 -1.563v-1.563l-1.41 -0.568c-2.068 -1.199 -2.881 -2.402 -4.156 -4.412l-1.178 -1.825A60.938 60.938 0 0 1 439.063 509.375h-1.563c-1.095 -1.23 -2.295 -2.881 -2.295 -2.881l-1.193 -1.62c-1.264 -1.843 -2.408 -3.73 -3.543 -5.655l-1.145 -1.871c-1.859 -3.053 -3.657 -6.084 -5.203 -9.311 -0.928 -1.929 -1.752 -3.234 -3.125 -4.931 -1.684 -2.134 -2.184 -3.964 -3.027 -6.543a130.469 130.469 0 0 0 -1.758 -2.979c-2.836 -4.933 -4.463 -10.337 -6.272 -15.707 -0.724 -2.089 -1.516 -4.148 -2.322 -6.207 -16.379 -46.639 -11.578 -100.307 9.521 -144.541 7.695 -15.755 16.696 -30.531 28.174 -43.848q1.08 -1.295 2.158 -2.591C455.358 251.256 463.758 242.765 473.438 235.156l1.694 -1.434C500.556 212.392 532.852 198.365 565.625 193.75l1.71 -0.246c6.29 -0.766 12.629 -0.68 18.956 -0.68z" fill="#919BA2"/>
  </g>
</svg>
