<svg xmlns="http://www.w3.org/2000/svg" viewBox="0 0 24 24" fill="none" stroke="currentColor" stroke-width="1.5" stroke-linecap="round" stroke-linejoin="round">
  <path d="M12 15a3 3 0 1 0 0-6 3 3 0 0 0 0 6z"/>
  <path d="M19.622 10.395l-1.097-2.65L20 6l-2-2-1.735 1.483-2.707-1.113L12.935 2h-1.954l-.632 2.401-2.645 1.115L6 4 4 6l1.453 1.71-1.08 2.684L2 11v2l2.401.655L5.516 16.3 4 18l2 2 1.755-1.5 2.66 1.094L11 22h2l.626-2.419 2.641-1.088 1.808 1.515 2-2-1.491-1.758 1.095-2.681L22 13v-2l-2.378-.605z"/>
</svg>
